<svg width="32" height="32" viewBox="0 0 32 32" fill="none" xmlns="http://www.w3.org/2000/svg">
<path d="M21.1782 23.3333C21.7771 23.3333 22.2626 22.8643 22.2626 22.2857C22.2626 21.7071 21.7771 21.2381 21.1782 21.2381C20.5793 21.2381 20.0938 21.7071 20.0938 22.2857C20.0938 22.8643 20.5793 23.3333 21.1782 23.3333Z" fill="#0B2739"/>
<path d="M5.72487 10.2381H26.8709V29.6191H21.7199V25.4286C21.7199 25.1143 21.5031 24.9048 21.1777 24.9048C20.8524 24.9048 20.6355 25.1143 20.6355 25.4286V29.6191H11.9602V25.4286C11.9602 25.1143 11.7434 24.9048 11.418 24.9048C11.0927 24.9048 10.8758 25.1143 10.8758 25.4286V29.6191H5.72487V25.4286C5.72487 25.1143 5.50799 24.9048 5.18267 24.9048C4.85735 24.9048 4.64046 25.1143 4.64046 25.4286V30.6667H27.9553V10.2381H30.6663V5.00001C30.6663 4.94763 30.6663 4.89525 30.6121 4.84287C30.6121 4.79049 30.5579 4.73811 30.5037 4.73811L27.7927 1.59525C27.7384 1.38572 27.5758 1.33334 27.4131 1.33334H4.64046C4.4778 1.33334 4.31514 1.38572 4.2067 1.54287L1.49567 4.68572C1.44145 4.73811 1.44145 4.79049 1.38723 4.79049C1.38723 4.84287 1.33301 4.89525 1.33301 4.94763V10.1857H4.58624V21.7095C4.58624 21.7095 4.58624 22.2857 5.12845 22.2857C5.72487 22.2857 5.72487 21.7095 5.72487 21.7095V10.2381ZM10.8758 14.1667V21.7095C10.8758 22.5476 11.9602 22.5476 11.9602 21.7095V15.2143H20.6355V19.1429C20.6355 19.4572 20.8524 19.6667 21.1777 19.6667C21.5031 19.6667 21.7199 19.4572 21.7199 19.1429V14.1667H10.8758ZM4.91157 2.38096H27.142L28.9313 4.4762H3.06807L4.91157 2.38096ZM29.5819 9.19049H2.47164V5.52382H29.5819V9.19049Z" fill="#0B2739"/>
</svg>
